<?xml version="1.0" encoding="utf-8"?>
<!-- Generator: Adobe Illustrator 25.4.1, SVG Export Plug-In . SVG Version: 6.00 Build 0)  -->
<svg version="1.1" id="Layer_1" xmlns="http://www.w3.org/2000/svg" xmlns:xlink="http://www.w3.org/1999/xlink" x="0px" y="0px"
	 viewBox="0 0 917 1000" style="enable-background:new 0 0 917 1000;" xml:space="preserve">
<style type="text/css">
	.st0{fill-rule:evenodd;clip-rule:evenodd;fill:#BF4722;}
</style>
<path class="st0" d="M453.3,491.5l4.7,3.2c0.1,0.1,0.2,0.1,0.4,0.1c0.1,0,0.2,0,0.4-0.1l4.7-3.2c0.2-0.1,0.3-0.3,0.3-0.6
	s-0.2-0.4-0.4-0.5l-4.7-2.3c-0.2-0.1-0.4-0.1-0.6,0l-4.6,2.3c-0.2,0.1-0.3,0.3-0.4,0.5C453,491.1,453.1,491.3,453.3,491.5
	L453.3,491.5z M459.9,495.6c0,0.2,0.1,0.4,0.3,0.5l3.7,2.6c0.2,0.2,0.6,0.1,0.8,0l3.1-2.8c0.1-0.1,0.2-0.3,0.2-0.5
	c0-0.2-0.1-0.4-0.2-0.5l-3-2.4c-0.2-0.2-0.5-0.2-0.8,0l-3.9,2.6C460,495.2,459.9,495.4,459.9,495.6L459.9,495.6z M450.6,499.1
	c0.2,0.1,0.2,0.3,0.2,0.5c0,0.2-0.1,0.4-0.3,0.5l-2.2,1.3c-0.2,0.1-0.5,0.1-0.7,0c-0.2-0.2-0.3-0.4-0.2-0.7l0.8-2.6
	c0.1-0.2,0.2-0.4,0.4-0.4c0.2-0.1,0.4,0,0.6,0.1L450.6,499.1z M462.7,499.4l-4-2.8c-0.2-0.1-0.5-0.1-0.7,0l-4,2.8
	c-0.2,0.1-0.3,0.3-0.3,0.5c0,0.2,0.1,0.4,0.2,0.5l4,3.6c0.1,0.1,0.3,0.2,0.4,0.2c0.2,0,0.3-0.1,0.4-0.2l4-3.6
	c0.1-0.1,0.2-0.3,0.2-0.5C463,499.7,462.9,499.5,462.7,499.4L462.7,499.4z M452,498.7l-3.1-2.8c-0.1-0.1-0.2-0.3-0.2-0.5
	c0-0.2,0.1-0.4,0.2-0.5l3-2.4c0.2-0.2,0.5-0.2,0.8,0l3.9,2.6c0.2,0.1,0.3,0.3,0.3,0.5c0,0.2-0.1,0.4-0.3,0.5l-3.7,2.6
	C452.5,498.9,452.2,498.9,452,498.7z M468,502.7l-3.2-1.9c-0.2-0.1-0.5-0.1-0.7,0.1l-3.9,3.5c-0.2,0.1-0.2,0.4-0.2,0.6
	c0,0.2,0.2,0.4,0.4,0.5l5.4,2.2c0.1,0,0.2,0,0.2,0c0.3,0,0.5-0.1,0.6-0.4l1.7-3.8C468.4,503.2,468.3,502.9,468,502.7L468,502.7z
	 M468.5,498.1l0.8,2.6h0c0.1,0.2,0,0.4-0.1,0.6c-0.1,0.2-0.3,0.3-0.5,0.3c-0.1,0-0.2,0-0.3-0.1l-2.2-1.3c-0.2-0.1-0.3-0.3-0.3-0.5
	c0-0.2,0.1-0.4,0.2-0.5l1.4-1.3c0.2-0.1,0.4-0.2,0.6-0.1C468.3,497.8,468.4,497.9,468.5,498.1L468.5,498.1z M456.7,504.9
	c0-0.2,0-0.4-0.2-0.6l-3.9-3.5c-0.2-0.2-0.5-0.2-0.7-0.1l-3.2,1.9c-0.3,0.2-0.4,0.5-0.3,0.8l1.7,3.8c0.1,0.3,0.5,0.5,0.8,0.3
	l5.4-2.2C456.5,505.3,456.6,505.1,456.7,504.9L456.7,504.9z M458.6,506l4.3,1.8c0.2,0.1,0.4,0.3,0.4,0.5c0,0.2-0.1,0.5-0.3,0.6
	l-4.3,3c-0.1,0.1-0.2,0.1-0.4,0.1c-0.1,0-0.2,0-0.4-0.1l-4.3-3c-0.2-0.1-0.3-0.4-0.3-0.6c0-0.2,0.2-0.4,0.4-0.5l4.3-1.8
	C458.3,505.9,458.4,505.9,458.6,506L458.6,506z"/>
</svg>
