<?xml version="1.0" standalone="no"?>
<!DOCTYPE svg PUBLIC "-//W3C//DTD SVG 20010904//EN"
 "http://www.w3.org/TR/2001/REC-SVG-20010904/DTD/svg10.dtd">
<svg version="1.0" xmlns="http://www.w3.org/2000/svg"
 width="1000.000000pt" height="1000.000000pt" viewBox="0 0 1000.000000 1000.000000"
 preserveAspectRatio="xMidYMid meet">
<metadata>
Created by potrace 1.14, written by Peter Selinger 2001-2017
</metadata>
<g transform="translate(0.000000,1000.000000) scale(0.100000,-0.100000)"
fill="#000000" stroke="none">
<path d="M4840 9392 c-192 -90 -1628 -809 -1658 -831 -44 -31 -82 -113 -82
-176 0 -63 37 -143 83 -177 90 -68 1678 -1146 1716 -1165 56 -29 142 -31 191
-5 55 28 1691 1151 1729 1186 74 69 91 171 45 265 -17 33 -41 62 -65 78 -22
14 -421 215 -887 446 -991 492 -900 459 -1072 379z"/>
<path d="M2719 7858 c-24 -13 -295 -225 -601 -471 -490 -395 -560 -454 -580
-495 -30 -62 -30 -150 0 -209 16 -30 175 -178 604 -563 321 -287 601 -531 623
-543 51 -27 146 -29 192 -4 55 29 1366 928 1402 961 46 43 71 100 71 166 0 66
-25 123 -71 166 -54 49 -1430 987 -1469 1001 -55 19 -121 16 -171 -9z"/>
<path d="M7100 7857 c-60 -27 -1465 -995 -1488 -1025 -57 -75 -59 -189 -4
-266 20 -29 199 -157 712 -507 377 -258 701 -476 720 -486 53 -26 136 -23 192
7 39 21 1098 959 1184 1048 67 70 82 171 38 260 -24 48 -70 87 -580 495 -305
243 -573 452 -596 465 -46 24 -134 29 -178 9z"/>
<path d="M4914 6366 c-18 -8 -366 -243 -774 -522 -536 -366 -751 -519 -771
-547 -53 -73 -56 -185 -6 -260 21 -33 1478 -1336 1525 -1364 52 -32 110 -38
174 -19 49 14 111 67 803 686 454 406 759 686 773 709 48 82 38 192 -25 261
-41 46 -1491 1041 -1542 1058 -45 16 -118 14 -157 -2z"/>
<path d="M1472 5935 c-29 -15 -64 -43 -79 -61 -29 -38 -329 -961 -340 -1046
-20 -155 127 -288 274 -249 23 6 233 126 466 266 462 277 487 296 506 386 14
63 -1 135 -37 182 -38 49 -545 498 -589 522 -21 10 -62 21 -92 23 -46 3 -66
-2 -109 -23z"/>
<path d="M8332 5940 c-37 -17 -517 -434 -589 -511 -78 -84 -69 -235 18 -315
43 -40 835 -512 892 -531 147 -51 303 84 284 246 -6 54 -290 956 -318 1013
-51 101 -182 146 -287 98z"/>
<path d="M2701 4869 c-54 -22 -1208 -719 -1233 -745 -38 -41 -58 -95 -58 -160
0 -52 22 -106 311 -753 171 -383 323 -712 338 -731 44 -56 105 -85 176 -84 55
1 140 33 1058 406 884 359 1003 410 1038 444 79 77 91 204 27 290 -40 54
-1450 1306 -1493 1325 -43 20 -125 24 -164 8z"/>
<path d="M7122 4858 c-23 -13 -367 -313 -763 -667 -787 -703 -760 -675 -761
-787 -1 -66 31 -134 82 -175 22 -18 404 -178 1025 -430 938 -381 993 -402
1055 -403 54 -1 73 4 113 27 26 15 58 45 71 65 14 20 163 348 332 727 301 673
308 692 309 755 0 53 -5 73 -28 112 -15 26 -39 55 -55 66 -53 38 -1155 694
-1196 713 -57 26 -133 25 -184 -3z"/>
<path d="M4925 2986 c-106 -35 -1584 -640 -1613 -659 -65 -44 -109 -146 -95
-219 9 -49 37 -99 75 -134 36 -34 1557 -1093 1610 -1121 44 -23 142 -23 186 0
26 14 1516 1045 1598 1106 36 26 73 86 84 134 21 95 -28 205 -110 247 -22 11
-390 162 -817 336 -817 331 -837 338 -918 310z"/>
</g>
</svg>
